<?xml version="1.0" standalone="no"?>
<!DOCTYPE svg PUBLIC "-//W3C//DTD SVG 20010904//EN"
 "http://www.w3.org/TR/2001/REC-SVG-20010904/DTD/svg10.dtd">
<svg version="1.0" xmlns="http://www.w3.org/2000/svg"
 width="260.000000pt" height="260.000000pt" viewBox="0 0 260.000000 260.000000"
 preserveAspectRatio="xMidYMid meet">
<metadata>
Created by potrace 1.11, written by Peter Selinger 2001-2013
</metadata>
<g transform="translate(0.000000,260.000000) scale(0.100000,-0.100000)"
fill="#000000" stroke="none">
<path d="M1263 2532 c-22 -3 -33 -22 -13 -22 6 0 10 -5 10 -11 0 -5 -5 -7 -11
-3 -7 4 -10 1 -7 -7 6 -17 154 -23 155 -6 0 7 4 19 7 28 5 12 0 15 -23 15 -17
0 -28 -3 -25 -8 3 -4 0 -8 -5 -8 -6 0 -11 5 -11 11 0 5 -8 9 -17 7 -10 -1 -22
0 -28 3 -5 3 -20 3 -32 1z m44 -32 c-29 -23 -37 -25 -37 -8 0 6 3 9 6 5 4 -3
13 0 21 8 8 8 19 15 25 15 6 0 -1 -9 -15 -20z m69 -8 c-18 -16 -18 -16 -6 6 6
13 14 21 18 18 3 -4 -2 -14 -12 -24z m-26 4 c0 -3 -4 -8 -10 -11 -5 -3 -10 -1
-10 4 0 6 5 11 10 11 6 0 10 -2 10 -4z"/>
<path d="M1120 2521 c-14 -4 -37 -6 -52 -6 -15 1 -25 -2 -23 -5 2 -4 -12 -7
-33 -8 -20 -1 -38 -6 -40 -11 -2 -6 -11 -8 -20 -5 -14 5 -13 2 2 -10 22 -18
14 -21 -14 -6 -22 12 -104 -16 -94 -31 3 -5 0 -9 -5 -9 -6 0 -11 4 -11 9 0 6
-12 4 -27 -4 -24 -13 -32 -26 -35 -62 -2 -13 -28 -5 -28 9 0 5 4 7 9 4 5 -3
11 1 15 9 3 8 3 15 0 15 -10 0 -78 -34 -91 -45 -36 -30 -41 -33 -48 -27 -4 4
-4 -3 -1 -15 5 -15 3 -23 -4 -23 -6 0 -8 5 -5 10 3 6 -1 10 -9 10 -9 0 -15 -4
-14 -9 2 -5 -1 -8 -5 -7 -5 0 -13 -7 -18 -16 -6 -10 -16 -18 -23 -18 -16 0
-68 -55 -59 -63 3 -4 0 -7 -8 -7 -12 0 -49 -33 -49 -44 0 -2 12 -12 27 -21 16
-10 25 -15 21 -10 -4 4 12 23 35 43 22 21 56 52 74 70 18 18 33 29 33 25 1 -5
10 3 20 16 11 13 20 20 20 16 0 -4 15 4 34 18 18 15 36 23 40 20 3 -4 6 -2 6
3 0 6 16 16 35 23 19 7 35 17 35 22 0 6 5 7 10 4 6 -3 10 -1 10 5 0 6 4 9 8 6
5 -3 22 2 38 10 16 9 30 15 32 15 14 -4 32 1 32 9 0 7 -7 7 -20 0 -15 -8 -20
-8 -18 1 2 6 -4 14 -12 17 -8 2 -12 1 -8 -3 4 -4 -2 -16 -14 -26 -30 -27 -32
-24 -6 11 23 32 33 36 43 20 3 -5 11 -10 17 -10 6 0 5 7 -3 17 -13 15 -12 15
9 2 12 -8 22 -17 22 -21 0 -5 5 -8 11 -8 5 0 7 5 3 11 -4 7 0 9 13 5 11 -4 33
-1 49 5 31 12 69 18 122 20 33 1 46 18 15 20 -13 0 -14 2 -4 6 8 3 19 0 25 -8
22 -28 61 -6 49 28 -5 12 -72 15 -113 4z m100 -22 c0 -4 -7 -6 -15 -3 -8 4
-15 10 -15 15 0 4 7 6 15 3 8 -4 15 -10 15 -15z m-146 -13 c-10 -8 -21 -12
-23 -10 -3 2 4 11 15 18 10 8 21 12 23 10 3 -2 -4 -11 -15 -18z m62 6 c2 -8 0
-8 -3 -2 -3 7 -12 5 -25 -7 -20 -18 -21 -18 -7 5 14 23 31 25 35 4z m-135 -27
c5 4 9 1 9 -5 0 -17 -25 -6 -26 11 -1 9 1 10 3 1 3 -7 9 -10 14 -7z m33 9 c3
-8 2 -12 -4 -9 -6 3 -10 10 -10 16 0 14 7 11 14 -7z m-213 -63 c-6 -4 -18 -16
-27 -27 -15 -18 -15 -18 -5 2 6 12 7 25 3 29 -4 5 -1 5 6 1 6 -4 12 -2 12 4 0
6 5 8 11 4 8 -5 8 -8 0 -13z m-94 -42 c2 -16 -1 -19 -9 -11 -5 5 -7 15 -4 21
10 15 12 14 13 -10z m-33 -13 c-3 -8 -13 -17 -22 -21 -14 -5 -14 -7 -2 -15 11
-7 9 -9 -8 -7 -12 0 -22 2 -22 4 0 3 54 53 57 53 1 0 0 -6 -3 -14z m7 -29
c-10 -9 -11 -8 -5 6 3 10 9 15 12 12 3 -3 0 -11 -7 -18z m-67 -49 c-3 -4 -11
-5 -19 -1 -8 3 -15 -1 -15 -8 0 -7 -3 -10 -6 -6 -10 10 6 26 26 24 10 -1 17
-5 14 -9z m-54 -18 c0 -5 -5 -10 -11 -10 -5 0 -7 5 -4 10 3 6 8 10 11 10 2 0
4 -4 4 -10z m-39 -14 c-8 -10 -9 -16 -1 -21 5 -3 10 -2 10 3 0 5 7 9 16 9 15
0 14 -2 -1 -13 -13 -10 -22 -11 -31 -3 -14 11 -8 39 8 39 6 0 6 -6 -1 -14z
m-42 -59 c-16 -11 -29 -23 -29 -28 0 -5 -5 -9 -11 -9 -8 0 -9 4 0 13 6 8 9 17
6 20 -3 4 -2 5 1 2 14 -10 43 16 37 32 -6 15 -5 16 9 3 14 -14 13 -17 -13 -33z"/>
<path d="M1411 2502 c-8 -15 -7 -23 3 -31 19 -16 38 -10 54 14 11 18 12 17 6
-8 -6 -24 -4 -28 12 -27 11 1 21 1 24 0 19 -7 40 -7 40 1 0 5 4 9 10 9 5 0 7
-6 4 -14 -4 -12 28 -28 46 -24 3 1 16 -4 28 -11 33 -17 72 -23 72 -11 0 5 -4
10 -9 10 -5 0 -12 8 -15 17 -6 15 -4 15 14 -2 11 -10 20 -13 20 -8 0 12 -18
27 -43 36 -12 5 -16 3 -12 -6 4 -6 0 -4 -9 7 -10 13 -21 16 -33 11 -10 -5 -22
-7 -27 -6 -5 1 -5 -6 -2 -16 6 -14 4 -15 -5 -6 -13 13 -3 37 12 28 5 -4 9 -2
9 4 0 14 -104 43 -109 30 -2 -7 -6 -8 -10 -1 -3 5 -20 13 -38 16 -25 6 -34 3
-42 -12z m39 -13 c0 -6 -4 -7 -10 -4 -5 3 -10 1 -10 -6 0 -7 -2 -10 -5 -7 -9
8 6 38 16 32 5 -3 9 -10 9 -15z m98 -11 c-3 -7 -12 -14 -22 -14 -13 -2 -13 -1
-1 3 8 2 13 9 10 14 -4 5 -1 9 5 9 7 0 10 -6 8 -12z m100 -46 c2 -7 -1 -12 -8
-12 -6 0 -8 5 -5 10 3 6 1 10 -4 10 -6 0 -11 -5 -11 -12 0 -6 -3 -9 -6 -5 -9
9 6 29 19 24 6 -2 13 -9 15 -15z m26 -18 c3 -8 2 -12 -4 -9 -6 3 -10 10 -10
16 0 14 7 11 14 -7z"/>
<path d="M1722 2405 c-16 -34 -15 -35 7 -35 10 0 24 -7 31 -15 6 -8 21 -17 33
-21 24 -7 78 -43 89 -59 5 -7 8 -7 8 0 0 6 9 16 21 23 12 8 18 9 14 3 -3 -6 1
-14 10 -17 13 -6 14 -8 3 -15 -7 -5 -17 -9 -23 -9 -5 0 -4 4 4 9 8 5 9 11 3
15 -17 10 -26 -15 -10 -30 12 -12 17 -12 36 2 25 17 29 34 7 34 -8 0 -15 5
-15 10 0 6 -15 17 -32 25 -18 8 -28 15 -23 15 6 0 2 5 -8 11 -9 5 -22 7 -29 3
-6 -4 -8 -3 -4 4 13 21 -14 22 -35 1 -16 -16 -21 -17 -16 -6 3 9 2 19 -3 22
-6 4 -10 12 -10 18 0 7 5 4 11 -6 6 -9 15 -15 20 -11 6 3 3 11 -8 19 -10 7
-21 11 -25 9 -5 -3 -8 1 -8 8 0 7 -10 2 -21 -12 -17 -21 -19 -22 -10 -3 13 26
14 33 3 33 -5 0 -14 -11 -20 -25z m43 -25 c-3 -5 -1 -10 4 -10 6 0 11 -5 11
-11 0 -8 -5 -8 -15 1 -13 11 -12 30 1 30 3 0 2 -4 -1 -10z m65 -30 c0 -5 -5
-10 -11 -10 -5 0 -7 5 -4 10 3 6 8 10 11 10 2 0 4 -4 4 -10z m27 -24 c-8 -8
-17 -12 -21 -9 -3 3 2 12 12 19 22 16 29 9 9 -10z m50 -12 c-8 -8 -48 -13 -43
-6 2 4 14 8 26 9 12 1 20 0 17 -3z"/>
<path d="M1247 2334 c-1 -1 -33 -4 -72 -7 -348 -27 -661 -280 -774 -625 -11
-34 -23 -80 -26 -100 -3 -21 -8 -49 -10 -62 -8 -35 -7 -197 1 -250 27 -192
134 -397 278 -534 51 -49 181 -140 224 -157 20 -8 22 -16 23 -81 1 -40 0 -77
-1 -83 -1 -5 -3 -16 -3 -24 0 -10 -4 -9 -13 3 -7 10 -15 13 -18 7 -4 -5 3 -16
14 -24 11 -7 17 -17 13 -20 -3 -4 -12 2 -20 13 -16 23 -39 26 -46 8 -4 -10 -6
-10 -6 0 -1 8 8 16 19 19 11 3 17 9 14 14 -3 5 -10 7 -15 4 -5 -4 -9 -2 -9 3
0 11 -38 25 -59 22 -7 -1 -10 3 -6 9 4 7 0 8 -11 4 -12 -4 -15 -3 -10 5 5 8 0
12 -13 12 -12 0 -20 -5 -19 -11 5 -21 -20 -21 -41 0 -10 10 -22 17 -25 13 -3
-3 -6 0 -6 6 0 18 13 14 33 -8 9 -11 22 -20 29 -20 6 0 8 3 5 7 -4 3 -2 12 4
20 11 13 1 18 -25 14 -4 -1 -14 4 -22 10 -20 16 -49 -8 -33 -27 15 -18 121
-78 141 -80 9 -1 24 -8 32 -17 9 -8 24 -13 35 -10 10 3 22 0 25 -6 5 -7 1 -8
-11 -4 -10 3 -15 3 -12 -1 4 -4 17 -9 29 -11 12 -2 24 -6 26 -8 2 -2 5 -55 7
-118 l2 -114 366 -2 366 -1 2 106 c2 147 3 153 18 141 8 -8 20 -6 40 4 15 9
42 21 59 28 18 7 30 18 27 25 -2 7 1 15 6 19 6 3 8 11 5 17 -4 6 -2 8 4 4 6
-3 13 -2 16 3 3 5 -1 12 -10 15 -11 4 -18 -1 -21 -14 -3 -11 -10 -20 -15 -20
-5 0 -6 5 -2 11 16 26 -32 -12 -50 -39 -19 -28 -21 -29 -43 -15 -15 10 -23 11
-23 4 0 -6 7 -14 15 -17 8 -4 15 -11 15 -17 0 -5 -9 -2 -20 8 -17 15 -20 31
-20 105 l0 88 38 17 c157 74 316 225 407 388 114 205 140 480 68 712 -97 312
-370 558 -688 619 -68 13 -201 26 -208 20z m228 -128 c218 -60 416 -219 515
-414 28 -56 57 -128 65 -162 2 -8 8 -34 13 -56 15 -67 14 -233 -2 -309 -45
-212 -170 -399 -343 -515 -41 -27 -79 -50 -84 -50 -5 0 -9 23 -9 50 0 36 -8
67 -30 109 -16 32 -26 61 -23 65 8 8 -28 87 -37 81 -4 -3 -7 1 -6 8 1 15 -265
557 -274 557 -10 0 -324 -639 -317 -646 3 -4 -8 -34 -25 -68 -23 -44 -31 -73
-29 -103 1 -24 -1 -43 -4 -43 -4 0 -31 16 -62 37 -237 157 -381 448 -359 727
7 91 9 104 38 196 84 265 307 471 584 539 98 24 296 23 389 -3z m126 -1473
c12 -16 12 -17 -2 -6 -9 7 -20 9 -24 5 -5 -4 -5 -1 -1 6 9 16 11 15 27 -5z
m-615 -229 c1 -9 0 -13 -4 -10 -3 4 -7 14 -8 22 -1 9 0 13 4 10 3 -4 7 -14 8
-22z m519 7 c3 -5 2 -12 -3 -15 -5 -3 -9 1 -9 9 0 17 3 19 12 6z m-419 -13 c3
-4 -1 -5 -10 -4 -8 1 -18 5 -22 8 -3 4 1 5 10 4 8 -1 18 -5 22 -8z m344 6 c0
-8 -19 -13 -24 -6 -3 5 1 9 9 9 8 0 15 -2 15 -3z m-84 -29 c-1 -8 -5 -17 -8
-21 -5 -4 -4 16 1 34 3 9 9 -1 7 -13z m237 0 c4 -8 3 -16 -1 -19 -4 -3 -9 4
-9 15 -2 23 3 25 10 4z m-623 -11 c0 -8 -19 -13 -24 -6 -3 5 1 9 9 9 8 0 15
-2 15 -3z m65 -3 c-9 -8 -36 -10 -30 -2 2 4 11 8 20 8 8 0 13 -3 10 -6z m241
-17 c1 -9 0 -13 -4 -10 -3 4 -7 14 -8 22 -1 9 0 13 4 10 3 -4 7 -14 8 -22z
m220 14 c3 -4 -1 -5 -10 -4 -8 1 -18 5 -22 8 -3 4 1 5 10 4 8 -1 18 -5 22 -8z
m-746 -8 c8 -5 11 -10 5 -10 -5 0 -3 -5 5 -10 10 -7 11 -10 2 -10 -7 0 -15 7
-18 15 -4 8 -10 12 -15 9 -5 -3 -9 0 -9 5 0 13 10 14 30 1z m50 -11 c0 -5 5
-7 10 -4 6 3 10 1 10 -4 0 -13 -3 -13 -24 -5 -18 7 -22 24 -6 24 6 0 10 -5 10
-11z m740 1 c0 -5 -2 -10 -4 -10 -3 0 -8 5 -11 10 -3 6 -1 10 4 10 6 0 11 -4
11 -10z m-143 -15 c0 -8 -4 -12 -9 -9 -5 3 -6 10 -3 15 9 13 12 11 12 -6z
m358 -5 c-10 -11 -23 -20 -28 -20 -6 0 0 9 13 20 13 11 25 20 28 20 3 0 -3 -9
-13 -20z m-675 4 c0 -8 -19 -13 -24 -6 -3 5 1 9 9 9 8 0 15 -2 15 -3z m75 -5
c2 -3 -8 -5 -25 -5 -16 0 -27 3 -25 6 5 8 42 6 50 -1z m340 1 c3 -5 1 -10 -4
-10 -6 0 -11 5 -11 10 0 6 2 10 4 10 3 0 8 -4 11 -10z m-299 -25 c-1 -8 -5
-17 -8 -21 -5 -4 -4 16 1 34 3 9 9 -1 7 -13z m40 0 c-1 -8 -5 -17 -8 -21 -5
-4 -4 16 1 34 3 9 9 -1 7 -13z m124 11 c0 -3 -4 -8 -10 -11 -5 -3 -10 -1 -10
4 0 6 5 11 10 11 6 0 10 -2 10 -4z m-425 -95 c3 -5 2 -12 -3 -15 -5 -3 -9 1
-9 9 0 17 3 19 12 6z m659 -9 c3 -5 -1 -9 -9 -9 -8 0 -12 4 -9 9 3 4 7 8 9 8
2 0 6 -4 9 -8z m-598 -38 c1 -9 0 -13 -4 -10 -3 4 -7 14 -8 22 -1 9 0 13 4 10
3 -4 7 -14 8 -22z m159 7 c3 -5 2 -12 -3 -15 -5 -3 -9 1 -9 9 0 17 3 19 12 6z
m400 0 c3 -5 2 -12 -3 -15 -5 -3 -9 1 -9 9 0 17 3 19 12 6z m-459 -13 c3 -4
-1 -5 -10 -4 -8 1 -18 5 -22 8 -3 4 1 5 10 4 8 -1 18 -5 22 -8z m380 -14 c1
-9 0 -13 -4 -10 -3 4 -7 14 -8 22 -1 9 0 13 4 10 3 -4 7 -14 8 -22z m-123 -9
c4 -8 3 -16 -1 -19 -4 -3 -9 4 -9 15 -2 23 3 25 10 4z m43 -11 c1 -9 0 -13 -4
-10 -3 4 -7 14 -8 22 -1 9 0 13 4 10 3 -4 7 -14 8 -22z m-239 -1 c-4 -3 -1
-13 6 -22 11 -14 10 -14 -5 -2 -16 12 -16 31 -1 31 4 0 3 -3 0 -7z m398 -2 c3
-5 2 -12 -3 -15 -5 -3 -9 1 -9 9 0 17 3 19 12 6z m-474 -24 c-6 -8 -7 -18 -3
-22 4 -5 1 -5 -6 -1 -10 6 -10 11 -1 22 6 8 14 14 16 14 3 0 0 -6 -6 -13z
m-124 -22 c0 -8 -4 -12 -9 -9 -5 3 -6 10 -3 15 9 13 12 11 12 -6z m278 6 c-9
-8 -36 -10 -30 -2 2 4 11 8 20 8 8 0 13 -3 10 -6z m61 -3 c3 -4 -1 -5 -10 -4
-8 1 -18 5 -22 8 -3 4 1 5 10 4 8 -1 18 -5 22 -8z m141 -3 c0 -8 -4 -12 -9 -9
-5 3 -6 10 -3 15 9 13 12 11 12 -6z m43 9 c0 -8 -19 -13 -24 -6 -3 5 1 9 9 9
8 0 15 -2 15 -3z m55 -4 c3 -5 1 -10 -4 -10 -6 0 -11 5 -11 10 0 6 2 10 4 10
3 0 8 -4 11 -10z m-539 -25 c-1 -8 -5 -17 -8 -21 -5 -4 -4 16 1 34 3 9 9 -1 7
-13z m168 -13 c3 -5 -1 -9 -9 -9 -8 0 -12 4 -9 9 3 4 7 8 9 8 2 0 6 -4 9 -8z
m152 -4 c3 -4 -1 -5 -10 -4 -8 1 -18 5 -22 8 -3 4 1 5 10 4 8 -1 18 -5 22 -8z
m48 4 c3 -5 -1 -9 -9 -9 -8 0 -12 4 -9 9 3 4 7 8 9 8 2 0 6 -4 9 -8z m232 -4
c3 -4 -1 -5 -10 -4 -8 1 -18 5 -22 8 -3 4 1 5 10 4 8 -1 18 -5 22 -8z"/>
<path d="M1955 2250 c-17 -19 -17 -20 -1 -20 9 0 15 -4 12 -9 -8 -13 21 -34
39 -27 8 3 15 11 15 17 0 8 -4 8 -15 -1 -13 -10 -18 -11 -28 -1 -9 10 -8 11 4
6 10 -4 20 -2 24 4 3 6 -1 11 -9 11 -8 0 -18 5 -21 10 -10 17 11 11 36 -9 19
-16 22 -22 12 -32 -18 -18 -16 -40 2 -33 11 5 13 2 9 -10 -3 -9 -2 -16 3 -16
5 0 18 -7 29 -16 10 -8 12 -13 4 -9 -9 4 -6 -1 5 -12 11 -11 25 -28 31 -38 13
-24 35 -26 52 -5 10 13 11 12 5 -4 -4 -14 -3 -17 6 -12 6 4 10 4 9 -1 -4 -11
28 -54 35 -47 7 7 -51 94 -64 94 -5 0 -9 6 -9 14 0 8 -12 24 -26 35 -15 12
-23 21 -19 21 4 0 2 7 -6 16 -8 10 -21 13 -38 10 -22 -5 -23 -5 -8 5 16 10 15
14 -20 45 -20 19 -40 34 -43 34 -4 0 -15 -9 -25 -20z m131 -82 c4 -7 3 -8 -4
-4 -22 13 -12 -13 10 -28 12 -9 19 -16 15 -16 -5 0 -5 -5 -1 -11 4 -8 9 -7 15
2 6 10 8 8 7 -7 -2 -18 -5 -20 -20 -10 -10 6 -18 16 -18 23 0 6 -10 19 -22 28
-20 13 -21 17 -8 25 19 12 17 12 26 -2z m59 -98 c-3 -5 -14 -10 -23 -9 -14 0
-13 2 3 9 27 11 27 11 20 0z"/>
<path d="M429 2130 c13 -11 19 -20 14 -20 -5 0 -15 6 -22 13 -10 10 -18 5 -43
-22 -18 -20 -28 -40 -25 -52 3 -10 -1 -23 -9 -30 -10 -8 -14 -8 -14 0 0 6 5
11 11 11 5 0 7 5 3 11 -5 8 -10 6 -16 -5 -5 -9 -7 -20 -4 -25 9 -15 57 -9 64
7 3 9 13 23 21 32 27 29 51 60 51 67 0 8 -33 32 -45 32 -5 0 1 -9 14 -19z m-4
-30 c8 -13 -5 -13 -25 0 -13 8 -13 10 2 10 9 0 20 -4 23 -10z m-35 -20 c0 -5
6 -8 13 -6 6 1 9 1 4 -1 -4 -3 -5 -9 -1 -14 3 -5 1 -9 -3 -9 -5 0 -14 9 -21
20 -7 12 -8 20 -2 20 5 0 10 -4 10 -10z m-16 -26 c3 -8 2 -12 -4 -9 -6 3 -10
10 -10 16 0 14 7 11 14 -7z"/>
<path d="M2133 2027 c3 -7 9 -11 15 -10 6 2 9 -3 6 -11 -3 -8 0 -17 7 -22 8
-5 10 -3 4 7 -7 11 -5 11 9 -1 11 -9 14 -16 7 -18 -11 -4 22 -69 42 -83 5 -3
8 -9 8 -13 -3 -20 1 -26 13 -26 8 0 18 -5 22 -12 5 -8 2 -9 -9 -5 -15 6 -15 3
0 -36 9 -23 23 -46 30 -50 7 -4 13 -16 12 -25 0 -14 -2 -13 -9 3 -6 14 -9 15
-9 5 -1 -9 8 -23 19 -33 22 -19 35 -22 25 -7 -11 18 -14 51 -4 45 5 -4 7 -10
4 -14 -2 -5 2 -17 10 -27 14 -18 15 -17 9 11 -9 39 -12 45 -30 45 -8 0 -14 4
-14 10 0 5 7 7 15 4 8 -4 15 -1 15 5 0 6 -8 11 -17 11 -16 0 -16 2 -3 11 12 8
9 9 -11 5 -36 -8 -43 3 -19 29 18 20 19 25 7 48 -8 15 -18 23 -22 19 -5 -4 -5
1 -2 11 4 11 1 20 -8 23 -7 3 -12 11 -10 17 3 7 -2 21 -11 32 -12 17 -16 18
-24 5 -5 -8 -7 -17 -4 -21 2 -4 0 -10 -5 -14 -6 -3 -8 5 -5 18 2 15 -4 33 -16
48 -22 24 -54 36 -47 16z m102 -67 c3 -5 1 -10 -4 -10 -6 0 -11 5 -11 10 0 6
2 10 4 10 3 0 8 -4 11 -10z m-11 -35 c-4 -8 -8 -15 -10 -15 -2 0 -4 7 -4 15 0
8 4 15 10 15 5 0 7 -7 4 -15z m22 -41 c1 -14 0 -23 -3 -20 -4 3 -8 18 -9 32
-2 14 0 24 3 20 3 -3 7 -17 9 -32z m39 -33 c-6 -5 -25 10 -25 20 0 5 6 4 14
-3 8 -7 12 -15 11 -17z"/>
<path d="M300 1995 c0 -2 14 -11 30 -20 17 -9 30 -11 30 -5 0 5 1 13 3 16 1 4
-13 8 -30 10 -18 2 -33 2 -33 -1z"/>
<path d="M298 1968 c15 -15 15 -28 1 -28 -5 0 -7 5 -4 10 3 6 2 10 -3 10 -11
0 -46 -71 -43 -87 1 -7 -2 -13 -8 -13 -8 0 -30 -51 -35 -83 -1 -7 -4 -16 -7
-22 -6 -9 -15 -42 -26 -85 -7 -31 -14 -76 -18 -110 -2 -20 -6 -59 -9 -87 -6
-55 5 -73 29 -53 9 7 15 8 15 2 0 -12 -28 -24 -40 -17 -5 3 -8 -4 -7 -15 1
-20 27 -29 27 -10 0 6 5 10 11 10 8 0 8 -5 -1 -15 -7 -8 -19 -15 -27 -15 -13
0 -13 -3 -2 -16 8 -10 15 -12 17 -5 2 6 8 11 14 11 7 0 6 -5 -2 -14 -6 -8 -19
-12 -27 -9 -13 5 -15 2 -10 -11 4 -10 7 -22 7 -28 0 -6 7 -8 15 -4 8 3 15 1
15 -4 0 -6 -7 -10 -15 -10 -8 0 -15 -5 -15 -11 0 -5 6 -7 13 -3 7 5 6 0 -3
-11 -8 -10 -10 -16 -5 -13 6 4 10 -11 11 -39 0 -48 18 -70 41 -51 8 6 16 8 20
5 3 -4 -2 -9 -11 -13 -9 -3 -13 -11 -9 -18 4 -6 -1 -5 -11 3 -16 13 -17 12
-10 -15 9 -38 14 -45 25 -39 5 4 9 2 9 -4 0 -5 -6 -12 -12 -15 -7 -3 -4 -4 7
-3 13 2 19 9 17 22 -2 19 -2 19 9 1 11 -18 5 -28 -26 -39 -5 -3 -7 -8 -3 -12
4 -4 14 -2 23 5 8 7 15 8 15 2 0 -5 -7 -13 -16 -16 -8 -3 -12 -11 -8 -17 4 -8
9 -7 15 2 5 8 9 9 9 4 0 -6 -5 -16 -11 -22 -8 -8 -5 -17 10 -32 17 -17 25 -19
41 -11 20 11 20 11 -4 58 -13 26 -27 62 -31 80 -5 23 -11 32 -21 28 -8 -3 -14
-1 -14 4 0 6 4 10 9 10 11 0 3 64 -9 68 -5 2 -6 10 -3 18 3 8 1 20 -4 27 -4 6
-8 24 -7 39 0 15 -3 25 -7 22 -5 -3 -9 0 -9 5 0 6 6 11 13 11 8 0 7 4 -3 10
-12 8 -13 11 -1 19 7 5 9 11 4 14 -10 6 -9 129 1 145 8 13 -28 35 -38 24 -4
-3 -4 1 0 11 3 9 10 17 16 17 5 0 6 -4 3 -10 -3 -5 -2 -10 4 -10 18 0 26 51
10 61 -11 7 -10 9 5 9 11 0 17 2 14 5 -3 3 1 31 8 62 7 32 12 58 10 60 -1 2
-12 -6 -24 -17 -12 -12 -22 -16 -22 -11 0 5 13 18 29 27 17 10 27 22 24 26 -3
5 -14 1 -24 -8 -18 -16 -19 -16 -13 -1 6 17 16 21 42 18 7 -1 12 2 11 6 -1 4
0 11 1 16 1 4 3 10 4 15 1 4 19 42 41 85 39 76 39 79 21 93 -24 17 -45 19 -28
2z m32 -25 c0 -5 -10 -19 -21 -33 -15 -18 -19 -20 -15 -6 5 14 2 17 -9 12 -10
-3 -13 -2 -10 5 4 6 13 8 21 5 8 -3 17 1 20 9 6 16 14 20 14 8z m-31 -70 c4
-3 -28 2 -47 6 -2 1 0 6 3 11 5 8 12 7 23 -2 10 -7 19 -14 21 -15z m-22 -22
c-10 -4 -17 -11 -16 -16 1 -6 -6 -11 -17 -12 -18 -3 -18 -2 1 6 11 5 16 10 12
10 -16 2 4 21 21 20 15 0 15 -1 -1 -8z m-17 -47 c0 -8 -34 -34 -43 -34 -7 0
-4 5 7 11 15 9 16 13 5 20 -10 6 -7 8 9 6 12 0 22 -2 22 -3z m-44 -139 c-3 -9
-10 -14 -15 -10 -5 3 -13 -4 -16 -16 -4 -11 -9 -18 -12 -16 -8 9 18 48 28 42
5 -4 9 2 9 11 0 10 3 15 6 11 4 -3 4 -13 0 -22z m-6 -35 c0 -5 -5 -10 -11 -10
-5 0 -7 5 -4 10 3 6 8 10 11 10 2 0 4 -4 4 -10z m-27 -40 c-10 -11 -19 -20
-21 -20 -1 0 2 9 8 20 6 11 15 20 20 20 6 0 2 -9 -7 -20z m17 -30 c0 -5 -4
-10 -10 -10 -5 0 -10 5 -10 10 0 6 5 10 10 10 6 0 10 -4 10 -10z m-13 -75 c0
-8 -4 -15 -9 -15 -4 0 -8 7 -8 15 0 8 4 15 8 15 5 0 9 -7 9 -15z m-13 -48 c-9
-5 -18 -6 -21 -3 -4 3 -1 6 7 6 10 0 10 3 -1 17 -13 15 -12 15 8 2 19 -11 20
-15 7 -22z m1 -135 c-3 -3 -11 0 -18 7 -9 10 -8 11 6 5 10 -3 15 -9 12 -12z
m18 -52 c-3 -12 -8 -19 -11 -16 -5 6 5 36 12 36 2 0 2 -9 -1 -20z m12 -40 c3
-6 -1 -7 -9 -4 -9 3 -16 1 -16 -5 0 -6 6 -11 13 -12 9 0 9 -2 -1 -6 -18 -7 -4
-23 16 -17 15 5 14 4 -1 -6 -22 -14 -26 -11 -32 20 -7 34 14 55 30 30z m80
-240 c3 -6 -1 -7 -9 -4 -9 3 -16 1 -16 -4 0 -6 8 -13 18 -15 15 -4 15 -5 0 -6
-19 -1 -32 14 -23 29 8 13 22 13 30 0z"/>
<path d="M2280 1815 c-14 -16 -10 -18 14 -9 9 3 16 10 16 15 0 14 -16 11 -30
-6z"/>
<path d="M2290 1683 c0 -5 5 -14 10 -19 6 -6 11 -27 12 -47 1 -20 4 -34 8 -32
4 2 6 -13 4 -35 -3 -50 5 -81 20 -74 6 3 2 -2 -8 -10 -11 -9 -15 -16 -8 -16 6
0 9 -6 6 -14 -3 -7 2 -16 10 -19 20 -8 48 2 41 14 -3 4 -13 5 -21 2 -12 -4
-15 -1 -13 12 2 10 11 20 19 22 13 4 13 3 0 -6 -18 -12 -10 -23 9 -12 7 5 10
14 6 20 -3 7 -8 39 -10 71 -3 43 -10 66 -25 82 -22 24 -26 38 -9 38 5 0 8 -4
5 -9 -3 -5 0 -14 8 -20 11 -9 12 -6 8 14 -4 23 -13 30 -36 26 -4 -1 -14 4 -22
10 -8 6 -14 7 -14 2z m65 -112 c-3 -5 -1 -12 4 -15 12 -8 11 -55 -1 -62 -18
-11 -30 12 -13 26 8 7 15 17 15 22 0 6 -7 5 -15 -2 -10 -9 -15 -9 -15 -1 0 6
4 11 8 11 14 0 11 38 -4 51 -8 6 -14 16 -14 22 0 5 9 -2 21 -17 11 -14 18 -30
14 -35z"/>
<path d="M2345 1510 c-3 -5 -1 -10 4 -10 6 0 11 5 11 10 0 6 -2 10 -4 10 -3 0
-8 -4 -11 -10z"/>
<path d="M2330 1388 c1 -13 1 -25 0 -28 -1 -3 -4 -25 -6 -50 -6 -63 -12 -98
-25 -150 -6 -25 -12 -50 -13 -57 -1 -7 -5 -16 -9 -19 -4 -4 -2 -13 5 -21 9
-11 8 -13 -2 -11 -8 2 -14 -1 -15 -7 0 -5 -6 -20 -13 -31 -6 -12 -8 -24 -5
-28 3 -3 1 -6 -6 -6 -7 0 -11 -6 -8 -14 3 -8 -1 -17 -8 -20 -9 -3 -12 -12 -8
-22 4 -12 3 -15 -5 -10 -11 6 -17 -5 -13 -26 0 -5 -4 -8 -9 -8 -7 0 -7 -6 0
-19 15 -29 12 -38 -5 -15 -8 10 -15 14 -15 7 0 -6 -7 -19 -16 -27 -14 -15 -14
-17 0 -22 9 -3 16 -11 16 -17 0 -7 -4 -7 -12 1 -7 7 -17 12 -23 12 -5 -1 1
-10 15 -22 18 -15 20 -19 6 -15 -14 6 -17 3 -12 -8 3 -10 2 -13 -5 -10 -6 4
-8 13 -5 21 3 8 2 14 -1 14 -11 0 -83 -83 -83 -95 0 -5 5 -2 11 8 11 19 29 23
29 6 0 -5 -4 -8 -9 -5 -5 3 -12 -1 -15 -10 -3 -9 -12 -14 -19 -11 -13 5 -64
-39 -55 -48 8 -9 48 27 42 37 -4 7 -2 8 5 4 6 -4 9 -11 6 -16 -3 -4 1 -11 7
-14 9 -3 8 -5 -2 -4 -8 1 -25 -3 -37 -10 -12 -7 -29 -9 -37 -6 -12 5 -15 2 -9
-12 5 -13 3 -16 -9 -11 -10 3 -25 -4 -39 -19 -12 -13 -28 -24 -35 -24 -6 0
-17 -14 -24 -31 -11 -26 -17 -30 -39 -25 -22 5 -23 4 -9 -6 14 -11 14 -13 -8
-31 -13 -10 -21 -23 -18 -28 3 -6 12 -2 21 8 9 11 12 12 8 3 -6 -13 -5 -13 7
0 7 8 20 16 28 18 8 2 23 12 32 23 9 11 19 20 22 19 20 -1 26 1 26 10 0 5 -8
7 -17 4 -17 -5 -17 -5 0 6 9 6 21 9 25 6 13 -8 103 74 96 86 -4 6 -1 9 7 6 14
-5 51 34 62 66 4 10 2 26 -5 35 -11 14 -11 14 3 4 9 -7 19 -9 24 -5 4 4 2 -4
-5 -18 -12 -24 -12 -24 6 -7 18 17 18 19 2 31 -24 18 -23 29 2 14 16 -11 22
-9 34 7 9 11 16 26 16 33 0 7 4 11 9 8 5 -3 11 1 15 9 3 8 2 14 -2 14 -19 -3
-32 2 -32 12 0 8 4 8 13 1 16 -14 34 -2 52 32 8 15 11 25 7 22 -4 -2 -16 2
-27 10 -10 8 -14 14 -8 14 7 0 15 -5 18 -10 10 -17 45 8 38 27 -4 11 -3 14 5
9 7 -4 12 -3 12 2 0 6 -7 12 -15 16 -21 8 -18 18 13 41 21 15 24 15 13 2 -9
-11 -10 -17 -2 -17 6 0 12 6 13 13 2 24 5 32 22 69 21 49 20 52 -6 34 -12 -9
-27 -16 -33 -16 -5 1 3 8 18 16 28 15 28 16 10 37 l-18 22 23 -19 c12 -11 25
-16 29 -13 3 4 -4 16 -17 27 -13 11 -20 23 -16 27 4 5 12 0 17 -10 12 -21 26
-22 26 -2 0 8 -4 15 -9 15 -4 0 -8 5 -8 11 0 5 5 7 10 4 6 -3 10 -5 10 -3 1 2
3 20 6 40 4 30 2 39 -15 48 -22 11 -28 30 -10 30 5 0 8 -4 5 -9 -7 -11 24 -24
33 -15 3 4 0 9 -7 11 -9 4 -10 9 -2 17 13 17 20 106 8 106 -6 0 -7 -8 -4 -17
6 -16 6 -16 -12 0 -25 23 -34 21 -32 -5z m36 -20 c10 -13 15 -20 10 -16 -5 4
-18 3 -30 -3 -19 -9 -19 -9 -4 4 13 10 15 16 6 25 -7 7 -10 12 -7 12 3 0 14
-10 25 -22z m4 -37 c0 -17 -21 -24 -33 -12 -9 9 -7 10 7 5 13 -5 17 -4 12 4
-4 7 -2 12 3 12 6 0 11 -4 11 -9z m-26 -86 c-4 -8 -10 -15 -15 -15 -4 0 -6 7
-3 15 4 8 10 15 15 15 4 0 6 -7 3 -15z m6 -35 c0 -5 -2 -10 -4 -10 -3 0 -8 5
-11 10 -3 6 -1 10 4 10 6 0 11 -4 11 -10z m-20 -20 c0 -5 -5 -10 -11 -10 -5 0
-7 5 -4 10 3 6 8 10 11 10 2 0 4 -4 4 -10z m-20 -140 c-6 -11 -15 -20 -20 -20
-6 0 -2 9 7 20 10 11 19 20 21 20 1 0 -2 -9 -8 -20z m-34 -45 c-8 -8 -18 -15
-22 -15 -3 0 -1 7 6 15 7 8 17 15 22 15 5 0 3 -7 -6 -15z m-29 -85 c-1 -11 -5
-20 -9 -20 -3 0 -6 9 -5 20 1 11 5 20 9 20 3 0 6 -9 5 -20z m-29 -65 c-3 -3
-9 2 -12 12 -6 14 -5 15 5 6 7 -7 10 -15 7 -18z m-140 -195 c-7 -10 -14 -17
-17 -15 -4 4 18 35 25 35 2 0 -1 -9 -8 -20z m-65 -65 c-3 -9 -8 -14 -11 -11
-3 3 -13 -4 -24 -16 -10 -12 -21 -19 -23 -16 -5 5 51 58 60 58 3 0 2 -7 -2
-15z m-63 -15 c0 -5 -5 -10 -11 -10 -5 0 -7 5 -4 10 3 6 8 10 11 10 2 0 4 -4
4 -10z m-9 -37 c13 -16 12 -17 -3 -5 -11 9 -18 10 -23 2 -3 -5 -12 -10 -18
-10 -7 0 -3 7 7 15 24 18 21 18 37 -2z m-63 -48 c-6 -13 -17 -26 -25 -29 -9
-4 -7 3 6 20 11 15 18 31 14 37 -3 6 -1 7 5 3 8 -5 8 -13 0 -31z"/>
<path d="M2265 960 c-3 -5 1 -10 10 -10 9 0 13 5 10 10 -3 6 -8 10 -10 10 -2
0 -7 -4 -10 -10z"/>
<path d="M290 921 c-8 -6 -18 -7 -22 -5 -19 12 51 -121 72 -136 4 -3 10 -12
13 -20 3 -8 5 -3 4 13 -1 15 -6 27 -12 27 -6 0 -7 3 0 8 22 16 15 50 -22 101
-2 2 -12 -4 -23 -14 -11 -10 -20 -15 -20 -12 0 3 10 15 22 27 22 20 15 27 -12
11z m40 -41 c0 -5 -2 -10 -4 -10 -2 0 -12 -3 -22 -7 -16 -6 -17 -5 -4 10 17
19 30 22 30 7z m13 -40 c-8 -30 -21 -34 -15 -5 2 14 8 25 12 25 5 0 6 -9 3
-20z"/>
<path d="M365 793 c2 -10 4 -28 4 -41 1 -13 12 -34 26 -48 14 -14 25 -29 25
-35 0 -6 5 -7 11 -4 6 4 13 -2 16 -13 4 -15 13 -20 34 -20 30 1 39 12 15 21
-7 3 -20 0 -27 -6 -11 -10 -11 -9 0 5 10 14 18 15 32 7 23 -12 24 -22 4 -39
-11 -9 -15 -9 -15 -1 0 7 -5 9 -11 5 -8 -5 -6 -10 5 -16 13 -7 23 -5 37 8 19
17 19 18 -18 55 -21 21 -41 35 -45 33 -5 -3 -8 2 -8 11 0 8 -7 18 -15 21 -8 4
-12 10 -9 15 7 12 -2 11 -29 -2 -21 -9 -21 -9 -3 5 10 8 15 20 11 26 -6 9 -10
9 -17 -1 -6 -10 -7 -7 -3 9 5 16 2 22 -8 22 -9 0 -14 -7 -12 -17z m37 -75 c-7
-7 -12 -8 -12 -2 0 14 12 26 19 19 2 -3 -1 -11 -7 -17z m28 -3 c0 -8 -4 -15
-10 -15 -5 0 -7 7 -4 15 4 8 8 15 10 15 2 0 4 -7 4 -15z m42 -37 c-7 -7 -16
-7 -28 0 -14 8 -13 10 10 10 18 0 24 -4 18 -10z"/>
<path d="M519 601 c-13 -11 -18 -20 -11 -21 7 0 24 -12 37 -27 21 -25 26 -26
44 -15 12 7 21 8 21 3 0 -5 -6 -11 -12 -14 -7 -2 -10 -8 -6 -12 5 -5 17 0 28
10 20 18 20 18 -6 41 -29 27 -29 27 -55 14 -13 -7 -19 -7 -19 0 0 5 7 10 16
10 9 0 14 5 12 12 -7 20 -24 20 -49 -1z m71 -40 c0 -14 -29 -21 -36 -9 -4 7
-3 8 4 4 7 -4 12 -2 12 3 0 6 5 11 10 11 6 0 10 -4 10 -9z"/>
<path d="M655 530 c3 -5 8 -10 11 -10 2 0 4 5 4 10 0 6 -5 10 -11 10 -5 0 -7
-4 -4 -10z"/>
<path d="M1830 509 c0 -5 5 -7 10 -4 6 3 10 8 10 11 0 2 -4 4 -10 4 -5 0 -10
-5 -10 -11z"/>
<path d="M1671 431 c-9 -6 -10 -11 -2 -15 6 -4 18 0 27 8 12 12 12 16 2 16 -7
0 -19 -4 -27 -9z"/>
</g>
</svg>
